<?xml version="1.0" standalone="no"?>
<!DOCTYPE svg PUBLIC "-//W3C//DTD SVG 20010904//EN"
 "http://www.w3.org/TR/2001/REC-SVG-20010904/DTD/svg10.dtd">
<svg version="1.0" xmlns="http://www.w3.org/2000/svg"
 width="154.000000pt" height="154.000000pt" viewBox="0 0 154.000000 154.000000"
 preserveAspectRatio="xMidYMid meet">
<metadata>
Created by potrace 1.14, written by Peter Selinger 2001-2017
</metadata>
<g transform="translate(0.000000,154.000000) scale(0.100000,-0.100000)"
fill="#000000" stroke="none">
<path d="M340 1167 c-78 -39 -78 -221 -1 -391 16 -35 32 -84 36 -108 16 -96
56 -147 138 -174 62 -20 90 -37 137 -80 45 -41 98 -58 153 -49 23 4 93 25 156
47 l115 40 60 -20 c34 -12 105 -29 159 -38 85 -15 100 -16 108 -3 16 26 3 34
-77 46 -73 11 -226 54 -249 71 -6 4 -33 57 -60 117 -27 61 -64 126 -82 145
-30 34 -34 35 -96 32 -80 -3 -87 3 -137 136 -16 41 -59 75 -123 96 -78 26
-106 44 -132 86 -23 36 -52 60 -72 60 -4 0 -19 -6 -33 -13z"/>
</g>
</svg>
